<svg version="1.0" xmlns="http://www.w3.org/2000/svg" width="266.667" height="266.667" viewBox="0 0 200 200"><path d="M81.9 1.5C19 13.4-16.7 80 8 139.3c9.2 22.2 30.5 43.5 52.7 52.7 14.7 6.1 21.2 7.3 39.3 7.3 18.1 0 24.6-1.2 39.3-7.3 22.2-9.2 43.5-30.5 52.7-52.7 6.1-14.7 7.3-21.2 7.3-39.3 0-13.7-.3-17.8-2.1-24.2-5.1-18.6-13.5-33.2-26.7-46.3-13.2-13.3-28.1-21.8-46.3-26.6C114 .2 92.5-.5 81.9 1.5zm31.7.6c31.3 4.3 59 23.9 73.9 52.2 25.4 48.1 6.7 107.6-41.8 133.2-61.4 32.4-136.2-7.7-144-77.2-7-63.1 48.7-117 111.9-108.2z"/><path d="M86 29.6c-27.5 3.7-41.5 7.7-47.3 13.5-3.3 3.2-3.8 4.3-3.5 7.5.5 6.1 2.1 6.3 16 1.9 6.8-2.1 13-4.1 13.8-4.3 1.2-.5 1.2-.2-.1 1.4-8 9.4-16.7 53.1-17.6 88.4-.6 22.6.4 30 5.3 39.5 5.2 10.1 6 10.7 7.9 6.2 3.6-8.5 4.7-18.5 3.8-34.2l-.8-15-3.5.2c-4.6.2-10-.6-10-1.5 0-.4 3.1-4.5 6.9-9 3.8-4.5 7.2-9 7.5-9.9.3-1 1-5.9 1.6-10.8 1.6-14 3.8-25.1 7.1-35.6 4.3-14.1 3.8-18-2.6-19.8C64 46.4 96.3 42 116 42h11.5l-3.5 1.8c-4.4 2.2-5.3 6.2-1.8 8.6 3.4 2.4 7.3 2 9.7-1 2.6-3.3 4.6-2.7 10.1 2.9 3.5 3.7 4 4.7 3.8 8.1-.2 2.9-1 4.4-3.1 5.9-2.5 2-3.1 2-8.7.9-3.3-.7-6.5-1-7.1-.6-.7.4-.9 2.7-.5 6.4.5 4.5.3 6-.9 7-1.8 1.5-2 4-.3 4 .6 0 2-.8 3.1-1.8 1.9-1.6 2-1.6.8.5-.6 1.3-1.8 2.3-2.6 2.3s-2.9.8-4.7 1.8c-1.8 1-4.3 2.4-5.5 3.1-2.1 1.1-2.2 1.4-.9 3.4 1.1 1.8 2 5.2 2.6 10.5 0 .6 9-4.8 18.3-11 13.3-8.9 22-17.7 26.2-26.2 5.1-10.4 6.2-15.4 4.6-20.8-4-13-24.3-19.9-58.1-19.7-6.9.1-17.2.7-23 1.5zm55.3 15c7.9 1.8 13 5.7 14.3 10.8 1.4 5.7-5.8 15.5-13.3 18-2.5.9-6.4 3.2-8.6 5.3l-4.2 3.7-.6-2.9c-.4-1.7-.7-4.5-.8-6.3l-.1-3.4 4.3.8c7.3 1.4 9.8.9 12.9-2.5 3.8-4.2 3.7-8.2-.3-13.2-1.7-2.2-5.4-5.2-8.2-6.7-9.8-5.3-9.6-5.2-5.9-5.2 1.8 0 6.5.7 10.5 1.6z"/><path d="M131.3 73.7c-1.3.2-2.3.9-2.3 1.4 0 1.5 4.6 1 6-.6 1.3-1.6.9-1.7-3.7-.8zM114.6 57.3c-1.5 1.1-1.3 1.5 2.9 4.5 2.5 1.7 4.5 3.7 4.5 4.3 0 .8.4.8 1.5-.1.8-.6 2-.8 2.7-.4 1.2.8 5.2 1.3 11.3 1.4 3.9.1 7.6-8.6 4.5-10.5-.6-.4-1 .8-1 2.7 0 1.9-.6 4.3-1.4 5.3-1.2 1.6-1.7 1.7-4.5.6-1.7-.8-4.5-1.1-6.2-.7-1.6.3-2.8.2-2.5-.3.6-.9-3.8-5.3-7.1-7-2.7-1.4-2.5-1.4-4.7.2zM115.1 65.8c-.5 1-1.7 5.8-2.5 10.7-.9 5.3-2.4 10.1-3.8 12-2.2 3.3-10.4 8.7-14.5 9.8-2 .4-2.1.2-1.6-2.4.4-2.2.1-3-1.2-3.5-3.7-1.5-6 2.3-4.1 6.7.5 1.2-1.6 2.9-9.9 7.4-5.8 3.1-10.5 5.9-10.5 6.1 0 .7 12.1-5.6 17.8-9.2 2.9-1.9 6.2-3.4 7.4-3.4 3.2 0 14.4-6.6 16.8-10 2.7-3.8 4.6-9.3 5.5-16 .4-3 1.3-6.5 2.1-7.8.8-1.2 1-2.2.5-2.2-.6 0-1.5.8-2 1.8zM91.5 94c.7 1.2-1.2 4-2.6 4-1 0-1.2-3.4-.2-4.3.9-1 2.1-.9 2.8.3zM117 78.4c0 5.3-.4 7.7-1.5 8.6-1.6 1.3-2.1 4-.7 4 .4 0 1.5-.7 2.5-1.4 1.5-1.1 1.6-2.4 1.1-9.4-.5-7.7-.5-8.1 1.5-7.9 1.2.1 2.1.5 2.1.9s.8.8 1.8.8c1.5-.1 1.5-.2-.2-1.5-1.1-.8-3-1.5-4.3-1.5-2.2 0-2.3.3-2.3 7.4zM101 98.3c-4.7 2.3-11.3 5.4-14.7 7l-6.2 2.7.2 8.4.2 8.3 11-4.9c6-2.6 13.9-6.5 17.5-8.6 6.3-3.6 6.5-3.9 6.4-7.6-.1-3.6-2.9-8.7-5-9.2-.5-.1-4.7 1.6-9.4 3.9zM71.8 114.3C67 117 56 128 56 130.2c0 2.9 16.3-1.2 20.2-5 1.7-1.8 3.6-14.2 2.1-14.2-.4 0-3.4 1.5-6.5 3.3z"/></svg>